<?xml version="1.0" standalone="no"?>
<!DOCTYPE svg PUBLIC "-//W3C//DTD SVG 20010904//EN"
 "http://www.w3.org/TR/2001/REC-SVG-20010904/DTD/svg10.dtd">
<svg version="1.0" xmlns="http://www.w3.org/2000/svg"
 width="96.000000pt" height="96.000000pt" viewBox="0 0 96.000000 96.000000"
 preserveAspectRatio="xMidYMid meet">
<metadata>
Created by potrace 1.11, written by Peter Selinger 2001-2013
</metadata>
<g transform="translate(0.000000,96.000000) scale(0.100000,-0.100000)"
fill="#000000" stroke="none">
<path d="M174 880 c-12 -4 -31 -21 -43 -36 -20 -26 -21 -35 -21 -326 l0 -300
34 -34 c34 -34 35 -34 127 -34 l93 0 58 -57 58 -57 58 57 58 57 92 0 c87 0 93
1 124 29 l33 29 0 311 0 311 -28 27 -27 28 -298 2 c-163 1 -307 -2 -318 -7z
m331 -240 c0 -20 -6 -26 -27 -28 -24 -3 -28 0 -28 21 0 30 9 39 35 35 14 -2
20 -10 20 -28z m50 -260 c13 -6 -16 -8 -80 -8 -65 0 -91 3 -75 8 33 11 130 11
155 0z"/>
</g>
</svg>
